<svg width="250" height="250" xmlns="http://www.w3.org/2000/svg" xmlns:xlink="http://www.w3.org/1999/xlink" xml:space="preserve" overflow="hidden"><g transform="translate(-425 -302)"><path d="M650 302C663.807 302 675 313.193 675 327L675 527C675 540.807 663.807 552 650 552L450 552C436.193 552 425 540.807 425 527L425 327C425 313.193 436.193 302 450 302Z" fill="#3178C6"/><path d="M573.888 418.95 573.888 445.612C578.782 448.004 583.994 449.688 589.362 450.612 595.519 451.737 601.766 452.29 608.025 452.263 614.114 452.294 620.189 451.686 626.15 450.45 631.455 449.39 636.532 447.406 641.15 444.587 645.55 441.905 649.07 437.995 651.275 433.337 653.759 427.992 655.039 422.168 655.025 416.275 655.098 411.909 654.355 407.569 652.838 403.475 651.483 399.82 649.29 396.532 646.438 393.875 643.62 390.921 640.386 388.394 636.838 386.375 632.705 383.983 628.43 381.846 624.037 379.975 620.525 378.538 617.65 377.15 614.45 375.763 612.008 374.636 609.68 373.275 607.5 371.7 605.75 370.47 604.216 368.958 602.963 367.225 601.902 365.648 601.345 363.787 601.362 361.888 601.336 360.113 601.841 358.372 602.812 356.888 603.851 355.357 605.218 354.076 606.812 353.138 608.79 351.958 610.948 351.113 613.2 350.638 616.004 350.027 618.869 349.742 621.737 349.788 624.059 349.79 626.378 349.957 628.675 350.288 633.81 351.029 638.824 352.445 643.588 354.5 645.85 355.493 648 356.725 650 358.175L650 333.175C645.688 331.558 641.218 330.397 636.662 329.712 631.191 328.908 625.666 328.532 620.138 328.587 614.039 328.576 607.959 329.255 602.013 330.612 596.664 331.757 591.586 333.926 587.062 337 582.804 339.849 579.324 343.716 576.938 348.25 574.3 353.16 573.006 358.68 573.188 364.25 573.188 372.25 575.475 379.175 580.125 384.513 584.7 390.375 591.85 394.65 600.912 398.913 604.6 400.4 607.85 401.9 611.05 403.337 613.859 404.56 616.539 406.059 619.05 407.812 621.131 409.15 622.939 410.873 624.375 412.888 625.732 414.737 626.444 416.981 626.4 419.275 626.399 420.955 625.969 422.608 625.15 424.075 624.255 425.662 622.963 426.989 621.4 427.925 619.415 429.096 617.254 429.94 615 430.425 612.025 431.084 608.984 431.391 605.938 431.337 600.11 431.344 594.33 430.299 588.875 428.25 583.034 426.225 577.611 423.15 572.875 419.175ZM529.1 353.35 563.225 353.35 563.225 331.487 467.775 331.487 467.775 353.35 501.9 353.35 501.9 450.938 529.1 450.938Z" fill="#FFFFFF" fill-rule="evenodd"/><path d="M545.338 479.138C543.213 479.138 541.013 479.263 538.338 479.513L538.338 469.812C540.619 470.128 542.923 470.253 545.225 470.188L556.475 470.188C558.286 470.211 560.099 470.128 561.9 469.938 561.838 471.65 561.775 472.688 561.775 473.837 561.751 483.302 564.46 492.574 569.575 500.538 573.845 506.986 579.643 512.28 586.45 515.95 583.609 518.689 581.331 521.959 579.75 525.575 575.055 522.521 570.859 518.76 567.312 514.425 562.726 509.204 559.372 503.017 557.5 496.325 555.696 502.547 552.671 508.348 548.6 513.388 544.602 518.277 539.775 522.424 534.338 525.638 532.732 522.336 530.518 519.369 527.812 516.888 531.609 514.949 535.1 512.464 538.175 509.513 543.437 504.418 547.31 498.062 549.425 491.05 550.535 487.175 551.21 483.188 551.438 479.162Z" fill="#FFFFFF"/><path d="M600.612 517.112C600.56 519.839 600.681 522.565 600.975 525.275L591.037 525.275C591.319 522.542 591.44 519.796 591.4 517.05L591.4 476.763C591.443 474.426 591.362 472.09 591.162 469.763 593.206 469.955 595.26 470.034 597.312 470L610 470C612.086 470.046 614.174 469.967 616.25 469.763 616.125 471.587 616.062 472.925 616.062 475.3L616.062 489.625C616.013 491.393 616.055 493.161 616.188 494.925 614.35 494.862 612.888 494.8 611.188 494.8L600.588 494.8ZM600.612 479.75 607.675 479.75 607.675 477.312 600.612 477.312ZM600.612 487.85 607.675 487.85 607.675 485.35 600.612 485.35ZM644.237 516.375C644.237 523.513 642.225 524.912 632.05 524.912 630.8 524.912 629.062 524.912 627.05 524.85 626.835 521.682 626.091 518.573 624.85 515.65 627.604 515.936 630.37 516.079 633.138 516.075 634.725 516.075 635.088 515.825 635.088 514.725L635.088 494.862 624 494.862C622.175 494.862 620.338 494.925 619 494.987 619.062 493.888 619.125 492.487 619.125 489.625L619.125 475.3C619.125 473.175 619.125 471.463 618.938 469.763 621.015 469.961 623.101 470.041 625.188 470L638.412 470C640.47 470.034 642.526 469.955 644.575 469.763 644.372 472.049 644.289 474.342 644.325 476.638ZM627.662 479.75 635 479.75 635 477.312 627.625 477.312ZM627.662 487.912 635 487.912 635 485.412 627.625 485.412Z" fill="#FFFFFF"/></g></svg>